<?xml version="1.0" encoding="utf-8"?>
<!-- Generator: Adobe Illustrator 24.3.0, SVG Export Plug-In . SVG Version: 6.00 Build 0)  -->
<svg version="1.1" id="Capa_1" xmlns="http://www.w3.org/2000/svg" xmlns:xlink="http://www.w3.org/1999/xlink" x="0px" y="0px"
	 viewBox="0 0 779.81 200" style="enable-background:new 0 0 779.81 200;" xml:space="preserve">
<style type="text/css">
	.st0{fill:#FFFFFF;stroke:#FFFFFF;stroke-width:4;stroke-miterlimit:10;}
	.st1{fill:#FFFFFF;}
	.st2{font-family:'MVBoli';}
	.st3{font-size:81.9407px;}
	.st4{letter-spacing:-1;}
</style>
<g>
	<g>
		<g>
			<g>
				<path class="st0" d="M97.47,104.87c-11.05,0.94-22.16,1.04-33.28,0.49c-5.56-0.32-11.12-0.85-16.67-1.7
					c-5.55-0.88-11.08-2.12-16.5-4.26c-2.7-1.09-5.38-2.42-7.84-4.39c-1.23-0.98-2.38-2.15-3.33-3.55
					c-0.48-0.69-0.91-1.48-1.23-2.24c-0.34-0.8-0.63-1.69-0.78-2.61c-0.33-1.85-0.03-3.96,0.83-5.65c0.84-1.7,2.05-3.01,3.29-4.06
					c2.52-2.1,5.23-3.41,7.94-4.53c5.44-2.18,11-3.41,16.54-4.45c5.55-1.02,11.11-1.73,16.68-2.29c5.58-0.5,11.13-0.84,16.76-0.99
					c5.55-0.18,11.19-0.16,16.76,0.1c5.59,0.27,11.18,0.73,16.75,1.48c5.58,0.74,11.14,1.79,16.6,3.46
					c2.73,0.84,5.44,1.83,8.06,3.11c2.62,1.28,5.19,2.83,7.4,4.99c1.09,1.07,2.09,2.31,2.88,3.69c0.78,1.39,1.4,3.01,1.44,4.78
					c0.06,1.77-0.54,3.53-1.45,4.88c-0.91,1.37-2.05,2.44-3.25,3.34c-2.41,1.77-5.04,2.96-7.68,3.98c-2.65,1-5.34,1.8-8.06,2.45
					c-5.43,1.31-10.93,2.16-16.45,2.65c2.72-0.53,5.41-1.18,8.08-1.89c2.67-0.7,5.32-1.46,7.92-2.34c2.6-0.89,5.17-1.84,7.62-2.99
					c2.44-1.15,4.82-2.47,6.76-4.14c1.95-1.64,3.35-3.73,3.11-5.76c-0.17-2.04-1.73-4.17-3.56-5.77c-1.88-1.62-4.14-2.9-6.54-3.95
					c-2.4-1.04-4.95-1.86-7.54-2.54c-10.42-2.59-21.39-3.51-32.3-3.78c-5.47-0.12-10.91-0.16-16.41,0.08
					c-5.43,0.19-10.92,0.58-16.36,1.1c-5.44,0.49-10.87,1.15-16.21,2.08c-5.33,0.93-10.63,2.15-15.52,3.97
					c-2.42,0.92-4.76,2.03-6.55,3.46c-0.88,0.71-1.59,1.5-2.01,2.28c-0.42,0.79-0.55,1.56-0.43,2.46c0.06,0.46,0.19,0.91,0.38,1.39
					c0.21,0.52,0.44,0.96,0.74,1.43c0.58,0.92,1.38,1.76,2.28,2.56c1.81,1.59,4.09,2.87,6.47,3.95c4.81,2.16,10.09,3.53,15.41,4.69
					c5.33,1.15,10.76,1.97,16.22,2.63C75.36,103.81,86.4,104.5,97.47,104.87z"/>
			</g>
		</g>
		<g>
			<g>
				<path class="st0" d="M19,89.65c0.65,9.11,2.2,18.1,4.7,26.76c2.47,8.65,5.99,16.97,10.87,24.3c2.46,3.64,5.27,7,8.4,9.99
					c3.15,2.98,6.66,5.52,10.45,7.54c7.55,4.1,16.15,6.12,24.85,6.41c8.73,0.34,17.56-0.61,25.74-3.41
					c4.09-1.39,8.02-3.26,11.65-5.61c3.62-2.36,6.98-5.16,10-8.32c6.01-6.36,10.63-14.12,13.98-22.43
					c1.72-4.15,3.08-8.45,4.22-12.83c0.57-2.19,1.07-4.41,1.49-6.64c0.44-2.23,0.79-4.48,1.05-6.76c0.14,4.58-0.26,9.17-0.93,13.72
					c-0.68,4.56-1.73,9.07-3.1,13.5c-1.41,4.42-3.18,8.75-5.36,12.89c-2.18,4.15-4.85,8.06-7.92,11.67
					c-6.11,7.25-14.28,12.8-23.19,16.12c-4.46,1.66-9.1,2.75-13.78,3.4c-2.34,0.32-4.69,0.52-7.04,0.62
					c-1.17,0.06-2.39,0.08-3.5,0.09c-1.21,0-2.36-0.01-3.55-0.06c-9.39-0.43-18.95-2.66-27.31-7.44
					c-8.33-4.77-15.23-11.84-20.02-19.96c-4.89-8.09-7.92-17.04-9.8-26.09c-0.89-4.54-1.54-9.11-1.86-13.7
					C18.73,98.82,18.63,94.22,19,89.65z"/>
			</g>
		</g>
		<g>
			<g>
				<path class="st0" d="M150.12,103.16c1.87-2.51,4.05-4.32,6.32-5.15c1.13-0.39,2.28-0.5,3.39-0.26c0.56,0.11,1.1,0.33,1.62,0.64
					c0.53,0.31,1.03,0.73,1.49,1.28c0.92,1.08,1.64,2.67,2.03,4.54c0.41,1.86,0.53,3.92,0.45,5.98c-0.19,4.14-1.17,8.26-2.59,11.85
					c-0.36,0.89-0.76,1.77-1.18,2.56c-0.43,0.84-0.87,1.59-1.34,2.33c-0.93,1.45-1.92,2.75-2.94,3.88
					c-2.06,2.24-4.22,4.01-6.43,5.26c-2.2,1.28-4.44,2.1-6.65,2.45c-2.21,0.32-4.4,0.19-6.43-0.68c2.14,0.2,4.3-0.09,6.45-0.81
					c2.15-0.69,4.29-1.79,6.36-3.2c2.07-1.45,4.1-3.17,5.96-5.38c0.93-1.1,1.83-2.27,2.64-3.59c0.41-0.65,0.8-1.35,1.15-2.05
					c0.37-0.74,0.7-1.47,1.01-2.26c1.27-3.09,2.11-6.68,2.32-10.16c0.11-1.73,0.04-3.44-0.25-4.95c-0.29-1.51-0.8-2.82-1.5-3.79
					c-0.35-0.48-0.75-0.89-1.18-1.2c-0.44-0.32-0.9-0.56-1.38-0.75c-0.95-0.37-1.99-0.43-3.04-0.23
					C154.32,99.86,152.15,101.2,150.12,103.16z"/>
			</g>
		</g>
		<g>
			<g>
				<path class="st0" d="M30.59,155.97c-1.62,1.13-3.15,2.37-4.55,3.74c-1.4,1.35-2.68,2.83-3.66,4.44
					c-0.97,1.61-1.65,3.36-1.66,5.07c-0.03,1.71,0.63,3.31,1.7,4.67c1.06,1.37,2.48,2.56,4.01,3.56c1.6,1.06,3.23,1.96,4.95,2.77
					c3.43,1.62,7.02,2.92,10.72,3.91c7.4,1.96,15.06,3.13,22.77,3.67c7.71,0.58,15.48,0.72,23.21,0.27
					c7.76-0.38,15.52-1.07,23.16-2.24c7.62-1.16,15.21-2.87,22.03-5.92c3.37-1.55,6.51-3.59,8.58-6.34
					c1.03-1.38,1.72-2.87,2.02-4.64c0.3-1.63,0.18-3.38-0.44-4.95c-0.6-1.59-1.71-3.04-3.08-4.27c-1.37-1.24-2.99-2.25-4.69-3.15
					c-1.7-0.9-3.51-1.63-5.35-2.27c-1.85-0.65-3.74-1.18-5.67-1.6c3.95,0.21,7.89,0.96,11.69,2.36c1.9,0.7,3.74,1.63,5.45,2.86
					c1.69,1.23,3.26,2.83,4.29,4.86c1.03,2.04,1.39,4.38,1.16,6.66c-0.18,2.17-0.98,4.46-2.18,6.33c-1.19,1.91-2.76,3.49-4.42,4.84
					c-1.67,1.35-3.46,2.47-5.29,3.45c-3.67,1.97-7.52,3.4-11.4,4.53c-3.89,1.15-7.82,2.04-11.76,2.78
					c-7.9,1.44-15.85,2.22-23.8,2.63c-8,0.34-16.02,0.19-23.99-0.61c-7.96-0.89-15.93-2.23-23.61-4.84
					c-3.83-1.3-7.63-2.84-11.18-4.9c-1.77-1.02-3.51-2.18-5.11-3.44c-1.66-1.31-3.23-2.79-4.42-4.67c-1.19-1.86-1.89-4.23-1.6-6.49
					c0.27-2.26,1.31-4.24,2.6-5.85C23.67,159.97,27.04,157.69,30.59,155.97z"/>
			</g>
		</g>
		<g>
			<g>
				<g>
					<path class="st0" d="M83.37,83.69c0.3-0.27,0.57-0.52,0.81-0.76c-0.46,0.34-0.91,0.65-0.91,0.65
						C83.3,83.62,83.34,83.65,83.37,83.69z"/>
				</g>
				<g>
					<path class="st0" d="M83.86,81.2c0.04-0.08,0.08-0.17,0.14-0.26l-0.26,0.21C83.8,81.16,83.82,81.18,83.86,81.2z"/>
				</g>
				<g>
					<path class="st0" d="M86.3,82.34c-0.42,0.05-1.3,0.54-2.93,1.35c0.36,0.38,1.05,0.51,0.85,1.27c-0.53,0.38-1.61,1.07-2.19,1.39
						c-0.44,0.57,0.28,0.49,0.42,0.72c-0.57,0.34-1.21,0.67-1.23,0.83c-0.04,0.12-0.03,0.21,0.03,0.27c0.06,0.06,0.12,0.1,0.36,0.04
						c0.37-0.06,0.87-0.24,1.47-0.54c0.89-1.4,2.62-3.29,3.26-4.47C86.66,82.63,86.72,82.28,86.3,82.34z"/>
				</g>
				<g>
					<path class="st0" d="M84.26,82.85c1.21-1.22,1.8-2.16,2.19-3.22c-0.77,0.8-1.57,1.52-2.41,2.17
						C83.99,82.25,83.81,82.79,84.26,82.85z"/>
				</g>
				<g>
					<path class="st0" d="M119.1,14.67c-0.83-0.79-1.74-1.51-2.67-2.15c-0.91-0.63-2.01-1.28-2.65-1.61
						c-2.95-1.55-5.73-2.52-8.13-3.17c2.65,1,5.31,2.15,7.94,3.71l0.61,0.34l0.73,0.43c0.49,0.3,0.97,0.6,1.44,0.91
						c0.94,0.63,1.83,1.29,2.65,2.02c1.64,1.45,3,3.14,3.82,5.14C122.12,18.15,120.77,16.25,119.1,14.67z"/>
				</g>
				<g>
					<path class="st0" d="M116.97,35.2c-0.57,0.38-1.16,0.75-1.76,1.08c-0.63,0.35-1.17,0.64-1.58,0.84l-0.92,0.64
						c0.29-0.11,0.57-0.22,0.85-0.34c0.28-0.12,0.55-0.23,0.88-0.39l0.52-0.26l0.56-0.29c0.37-0.2,0.73-0.41,1.08-0.62
						c1.4-0.85,2.64-1.82,3.68-2.86c2.07-2.09,3.33-4.46,3.79-6.92c-0.63,2.47-2.05,4.69-3.94,6.56
						C119.18,33.59,118.11,34.43,116.97,35.2z"/>
				</g>
				<g>
					<path class="st0" d="M123.03,27.24c0.8-2.33,0.68-4.83-0.2-6.95c0.83,2.42,0.65,5.14-0.3,7.41c-0.93,2.3-2.51,4.27-4.32,5.94
						C120.62,31.8,122.25,29.58,123.03,27.24z"/>
				</g>
				<g>
					<path class="st0" d="M51.82,3.82c1.3,0.58,5.57,2.22,6.87,2.7c1.15,0.33,2.25,0.58,3.19,0.71c-1.49-0.64-3.56-0.43-5.04-1.17
						C55.96,6.02,52.68,3.94,51.82,3.82z"/>
				</g>
				<g>
					<path class="st0" d="M98.69,12.22c-2-0.58-4.04-1.06-6.06-1.45c4.14,0.93,8.24,2.08,11.63,3.01c-0.48-0.2-0.93-0.52-1.42-0.7
						C101.76,12.96,100.19,12.7,98.69,12.22z"/>
				</g>
				<g>
					<path class="st0" d="M121.79,27.43c0.73-1.8,0.99-3.91,0.52-5.9c-0.45-2-1.54-3.82-2.94-5.36c-1.41-1.54-3.13-2.83-4.89-3.88
						c-0.47-0.28-0.8-0.46-1.16-0.64c-0.35-0.19-0.71-0.37-1.06-0.54c-0.7-0.34-1.4-0.66-2.09-0.94c-2.75-1.15-5.32-1.91-7.51-2.39
						c-2.52-0.57-5.09-1.1-7.71-1.61l-8.59,1.3c-0.23,0.09,2.66-1.22,2.43-1.13C90.8,6.63,92.89,7,94.87,7.33
						c0.09-0.03,0.17-0.06,0.25-0.1l0.81,0.26c0.49,0.04,1.02,0.05,1.36,0.07c3.86,0.83,7.76,1.74,11.72,3.38
						c0.35,0.12,0.7,0.24,1.05,0.38c0.54,0.19,1.18,0.52,1.8,0.89c0.31,0.18,0.62,0.38,0.91,0.56l0.85,0.55l-0.32-0.21l-0.29-0.17
						l-0.57-0.33c-0.38-0.22-0.77-0.42-1.15-0.61c-0.76-0.39-1.53-0.74-2.29-1.06c-2.29-0.77-4.35-1.22-6.43-1.7
						c-2.09-0.48-4.2-0.99-6.64-1.75c-0.33-0.03-0.64-0.07-0.85-0.12l-0.22-0.04C93.6,7.7,83.02,7.55,80.39,6.96
						c-1.84,0.67-3.43-0.13-5.4,0.19c0.01,0,7.56,0.86,7.56,0.86c2.72,0.55,5.41,1.21,8.05,1.65c3.42,0.56,6.93,1.36,10.38,2.31
						c3.45,0.96,6.85,2.05,10.06,3.37c1.01,0.42,2.15,1.35,2.91,1.99c-0.76-0.48-1.51-0.86-2.25-1.18c-0.77-0.33-1.59-0.65-2.4-0.91
						c-1.63-0.54-3.28-0.99-5.05-1.47c-5.8-1.39-12.41-2.94-18.94-4.1L83.58,9.5c-1.26-0.15-2.38-0.4-3.42-0.71l-0.48-0.09
						l0.29,0.03c-0.37-0.11-0.74-0.23-1.1-0.36c-0.65,0.03-1.29,0.04-1.94,0.03c-3.88-0.07-11.59,0.2-15.04-1.18
						c-0.45,0.53,1.31,0.31,0.43,0.06c-0.13-0.01-0.29-0.04-0.43-0.06c1.25,0.53,2.52,0.4,3.76,0.86c2.03,0.56,4.08,1.05,6.11,1.49
						c3.28,0.71,6.56,1.3,9.85,1.8l-2.69-0.2c-0.43-0.02-0.88-0.05-1.33-0.09c-3.61-0.34-7.72-1.44-11.94-3
						c-2.32-0.63-4.45-0.4-6.77-1.25L58.5,6.47c2.85,1.31,5.75,1.86,8.58,2.85c5.31,1.35,10.71,2.33,15.99,3.09l-2.66-0.17
						c-3.92-0.12-8.54-1.24-13.32-2.91c-4.97-1.29-9.88-2.77-15.27-5.5c3.31,2.06,7.09,3.77,10.36,4.88
						c6.64,2.15,12.87,3.35,18.95,4.28l4.29,0.62c1.39,0.21,2.76,0.44,4.13,0.68c2.73,0.49,5.42,1.03,8.07,1.69
						c1.35,0.09,2.67,0.26,3.91,0.63c1.45,0.39,2.96,0.94,4.39,1.56c0.71,0.31,1.41,0.64,2.05,0.97c0.63,0.32,1.37,0.75,1.55,0.83
						c-0.02-0.35,0.54,0.03,0.64-0.06c0.77,0.22,1.54,0.74,2.05,1.49c0.25,0.37,0.42,0.8,0.47,1.26c0.05,0.46-0.05,0.93-0.24,1.35
						c-0.12,0.24-0.28,0.19-0.54,0.37c0.04,0.62-0.27,1.27-0.78,1.84c-0.26,0.29-0.57,0.56-0.92,0.82
						c-0.19,0.13-0.33,0.23-0.58,0.38c-0.24,0.15-0.58,0.32-0.88,0.47c-2.51,1.24-5.57,2.06-8.62,2.62
						c-1.54,0.35-3.13,0.59-4.76,0.73c1.57-0.2,3.17-0.44,4.76-0.73c1.76-0.39,3.45-0.91,5.05-1.54c0.8-0.32,1.58-0.66,2.32-1.03
						c0.37-0.19,0.73-0.38,1.08-0.58c0.34-0.2,0.73-0.42,0.94-0.58c-0.28,0.18-0.78,0.44-1.2,0.65c-0.44,0.22-0.89,0.44-1.35,0.64
						c-0.92,0.41-1.88,0.77-2.85,1.1c-1.95,0.66-3.97,1.17-6.03,1.57c-1.03,0.2-2.06,0.37-3.11,0.51l-3.35,0.45
						c-2.25,0.31-4.51,0.64-6.78,1.01c-4.35,0.72-8.54,1.67-12.62,2.93c-4.07,1.28-8.05,2.8-11.81,5.12
						c-0.78,0.49-1.5,0.95-2.31,1.55c-0.83,0.61-1.62,1.27-2.34,2.01c-1.43,1.46-2.56,3.25-2.94,5.27
						c-0.03-0.36-0.04-0.71-0.04-1.05c-0.81,2.5-0.32,5.22,0.92,7.49c0.62,1.15,1.37,2.23,2.31,3.15c0.92,0.93,2.05,1.73,3.08,2.29
						c0.38,0.22,0.76,0.41,1.15,0.6c2.21,1.02,4.36,1.62,6.44,2.11c2.08,0.48,4.11,0.84,6.11,1.18c2,0.34,3.99,0.66,5.94,1.08
						c0.98,0.21,1.94,0.45,2.87,0.75c0.91,0.3,1.81,0.67,2.46,1.13c0.15,0.11,0.3,0.22,0.41,0.33c0.07,0.05,0.12,0.11,0.17,0.16
						c0.06,0.06,0.04,0.04,0.1,0.1c0.22,0.31,0.44,0.72,0.6,1.08c0.31,0.75,0.43,1.53,0.31,2.33c-0.04,0.61,0.21,0.48,0.49,0.41
						c0.23-0.06,0.57-0.02,0.21,1.2c0.09-0.11,0.18-0.22,0.26-0.31c0.24-0.95,0.19-1.85,0.08-2.54c-0.12-0.69-0.28-1.19-0.24-1.49
						c0.13-0.43,0.7,0.14,1.07,1.35c0.18,0.6,0.27,1.35,0.23,2.12c-0.04,0.77-0.2,1.55-0.38,2.23c0.06,0.12,0.1,0.26,0.12,0.45
						c0,0-0.19,0.35-0.45,0.75l-0.06,0.29c0.22,0.02,0.31,0.24,0.35,0.52c0.64-0.9,1.2-1.91,1.57-3.05c0.08,1.2-0.19,2.43-1.09,4.02
						c0.01,0,0.01,0,0.02,0l-0.08,0.1c-0.19,0.32-0.4,0.64-0.64,0.98l0,0.01c1.45-1.24,2.19-2.12,2.59-2.35
						c0.39-0.26,0.45,0.14,0.28,0.87c-0.17,0.73-0.58,1.76-1.07,2.75c-0.48,1-1.02,1.97-1.33,2.77c0.57-0.45,1.22-1.06,1.89-1.88
						l0.31,0.28c1.21-1.26,2.32-2.67,3.22-4.37c0.89-1.69,1.54-3.73,1.65-5.89c0.12-2.16-0.3-4.32-1.02-6.15
						c-0.09-0.23-0.18-0.47-0.28-0.68l-0.15-0.33l-0.04-0.08l-0.02-0.04l-0.01-0.02l-0.01-0.01l-0.19-0.3l-0.04-0.09l-0.08-0.18
						c0.01,0-0.04-0.08-0.08-0.13l-0.11-0.17L92.42,63c-0.36-0.51-0.55-0.73-0.8-1.03c-0.97-1.14-1.93-1.91-2.83-2.55
						c-0.9-0.6-1.25-0.94-1.71-1.33c-0.46-0.38-1.03-0.77-2.14-1.14c-2.88-0.93-5.18-1.37-7.39-1.83l-6.08-1.16
						c-2-0.33-3.81-0.74-5.2-1.22c-0.69-0.24-1.28-0.49-1.71-0.73l-0.26-0.14c-0.04-0.02-0.05-0.01-0.07-0.02
						c-0.05,0-0.09-0.02-0.13-0.04c-0.16-0.07-0.33-0.22-0.39-0.44c-0.06-0.21,0.01-0.45,0.17-0.63c-0.03-0.01-0.05-0.03-0.08-0.06
						c0.15-0.12-0.03-0.05,0.76-0.55c0.6-0.38,1.31-0.76,2.09-1.12c1.54-0.69,2.72-1.56,4.54-2.14c3.09-0.96,6.37-1.73,9.69-2.39
						c3.33-0.66,6.71-1.22,10.11-1.71c1.72-0.25,3.37-0.47,5.16-0.69c1.94-0.25,3.87-0.58,5.81-1c3.87-0.86,7.74-2.02,11.66-3.97
						l0.98-0.68c0.41-0.28,0.83-0.57,1.23-0.87c0.82-0.6,1.61-1.25,2.37-1.94c-1.12,0.85-2.4,1.62-3.79,2.27
						C117.3,33.77,120.33,31.07,121.79,27.43z M85.67,63.27c-0.08-0.09-0.17-0.16-0.26-0.24c0.71,0.26,1.46,0.6,2.22,1.13
						C87.01,63.88,86.3,63.59,85.67,63.27z M81.1,60.88c1.23,0.26,2.47,0.57,3.78,1.09c1.29,0.54,2.72,1.21,4.08,2.68
						c-0.02,0.02-0.07,0.02-0.14,0.01c-0.82-0.82-1.65-1.33-2.42-1.73c-0.77-0.39-1.49-0.67-2.18-0.9
						c-1.38-0.45-2.65-0.73-3.85-0.97c-2.39-0.47-4.52-0.82-6.3-1.29C76.29,60.1,78.65,60.37,81.1,60.88z M104.36,36.14
						c-1.53,0.89-3.87,1.6-6.45,2.11c-1.29,0.26-2.67,0.46-3.89,0.67c-1.26,0.22-2.5,0.46-3.66,0.75c-1.56,0.34-3.09,0.83-4.63,1.2
						c-3.6,0.83-7.15,1.76-10.62,2.85c-3.45,1.09-6.91,2.35-9.85,3.92c-0.58,0.32-1.14,0.67-1.65,1.04l-0.37,0.28l-0.17,0.14
						l-0.08,0.08c-0.09,0.1-0.19,0.21-0.27,0.31c-0.32,0.42-0.52,0.9-0.5,1.34c0.01,0.29,0.02,0.55,0.05,0.82l-0.11,0.05
						c-0.11-0.33-0.12-0.7-0.04-1.05c-0.04-0.31-0.21-0.8-0.07-0.94c0.12-0.36,0.4-0.69,0.77-1c0.73-0.55,1.66-1.1,2.65-1.64
						c1.53-1.03,3.92-1.6,6.28-2.43c0.48-0.14,0.89-0.54,0.86-0.68c3.48-0.64,5.34-1.89,8.97-2.42l-1.59,0.01
						c2.03-0.53,3.54-1.07,6.13-1.6c2.09-0.31,3.6-1.06,5.19-1.26c1.31-0.23,2.63-0.43,3.93-0.61c1.36-0.19,2.73-0.41,4.04-0.69
						c2.63-0.55,5.09-1.29,7.16-2.28C105.98,35.56,104.88,35.87,104.36,36.14z M110.07,28.26c-0.24,0.38-0.95,0.89-1.94,1.4
						c-2,1.04-5.32,2.06-9.03,2.69c-0.93,0.16-1.88,0.31-2.83,0.43l-2.93,0.35c-1.97,0.25-3.9,0.53-5.66,0.87
						c-3.51,0.67-6.35,1.55-7.53,2.55c-1.22-0.62,1.2-1.74,4.53-2.67c3.32-0.93,7.51-1.63,9.68-1.85c2.61-0.2,5.34-0.65,8.03-1.43
						c1.34-0.38,2.65-0.85,3.89-1.39c1.23-0.53,2.45-1.18,3.41-1.82C110.14,27.63,110.29,27.89,110.07,28.26z"/>
				</g>
				<g>
					<polygon class="st0" points="63.31,53.41 63.31,53.35 63.35,53.36 					"/>
				</g>
				<g>
					<path class="st0" d="M122.24,16.53c-1.34-1.96-3.14-3.57-5.06-4.89c-0.48-0.32-0.97-0.64-1.46-0.93l-0.71-0.41L114.46,10
						c-0.73-0.38-1.45-0.71-2.16-1.03c-2.59-1.13-5.11-1.94-7.63-2.63l-0.16,0c1.79,0.62,3.58,1.31,5.38,2.12
						c1,0.45,2,0.94,2.99,1.49c0.5,0.27,1,0.55,1.5,0.86c0.22,0.13,0.56,0.35,0.87,0.55c0.32,0.21,0.65,0.43,0.96,0.66
						c2.57,1.75,4.77,3.71,6.24,6.07c0.73,1.18,1.28,2.46,1.57,3.83c0.29,1.36,0.32,2.79,0.06,4.19c0.41-1.61,0.46-3.33,0.13-4.97
						C123.87,19.49,123.18,17.94,122.24,16.53z"/>
				</g>
				<g>
					<path class="st0" d="M99.36,6.24c1.82,0.4,3.61,0.81,5.39,1.26l0.9,0.23c-1.45-0.53-2.9-1.01-4.35-1.46L99.36,6.24z"/>
				</g>
				<g>
					<path class="st0" d="M86.03,9.47c-1.07-0.17-2.1-0.31-3.11-0.43c-1.03-0.12-2.02-0.23-2.95-0.3l0.2,0.06l5.15,0.88
						c2.37,0.26,4.84,0.61,7.32,1.09C90.4,10.26,88.16,9.81,86.03,9.47z"/>
				</g>
				<g>
					<polygon class="st0" points="93.45,15.32 95.41,15.89 96.36,15.91 95,15.47 					"/>
				</g>
				<g>
					<path class="st0" d="M111.85,24.45l0.04-0.08c0.23-0.48,0.33-1.02,0.22-1.54c-0.1-0.52-0.38-0.98-0.72-1.35
						c-0.34-0.38-0.74-0.67-1.14-0.92c-0.2-0.12-0.4-0.23-0.6-0.33l-0.3-0.14l-0.16-0.07l-0.22-0.11c-3.34-1.7-7.34-2.94-11.36-3.95
						c-0.42-0.03-0.84-0.05-1.25-0.06c2.66,0.87,5.25,1.76,7.66,2.67c1.21,0.46,2.36,0.91,3.45,1.37l0.8,0.34l0.39,0.17l0.1,0.05
						l0.05,0.02l0.1,0.03c0.24,0.06,0.46,0.11,0.71,0.18c0.37,0.1,1.21,0.28,1.47,0.65c0.34,0.39,0.63,0.84,0.74,1.36
						c0.12,0.51,0.06,1.06-0.14,1.54c-0.41,0.97-1.2,1.77-2.18,2.5C110.48,26.14,111.36,25.41,111.85,24.45z"/>
				</g>
			</g>
		</g>
	</g>
</g>
<text transform="matrix(1 0 0 1 195.9263 143.8516)" class="st1 st2 st3 st4">Sara’s Meeting</text>
</svg>
